#!OML:ASF H:\LiuWeirdWalks\Patient Classification 1\Patient 1\Session 1\male.ASF
:FULLY-SPECIFIED
:DEGREES
237
root 1.00495 17.6459 0.357286 4.30349 3.39163 -6.67644
lowerback 6.13006 2.38749 4.8312
upperback -0.758962 3.72386 4.05028
thorax -4.19508 1.78389 1.13676
lowerneck -20.3544 -0.14091 4.64008
upperneck 20.4971 -0.0150029 -6.65371
head 9.86678 -0.431181 -3.12095
rclavicle 9.93923e-017 1.59028e-015
rhumerus -33.3302 -7.62722 -74.1819
rradius 27.8161
rwrist -7.17823
rhand -16.6577 -3.10196
rfingers 7.12502
rthumb 9.56558 -32.8648
lclavicle 9.93923e-017 1.59028e-015
lhumerus -43.9427 3.04188 81.421
lradius 33.0545
lwrist 16.7874
lhand -13.2036 -3.40469
lfingers 7.12502
lthumb 12.8969 26.1768
rfemur 3.67985 0.161184 32.7691
rtibia 20.6458
rfoot -17.3637 -24.7192
rtoes -5.14272
lfemur -38.8213 3.54955 -12.0554
ltibia 51.1752
lfoot -7.19619 12.7208
ltoes 2.55111
238
root 1.01945 17.6243 0.650161 4.52742 3.11458 -6.8224
lowerback 5.90051 2.55005 5.06506
upperback -0.81527 3.94033 3.99598
thorax -4.10235 1.88628 0.941179
lowerneck -20.283 -0.0619751 4.7572
upperneck 20.4414 0.0841711 -6.75696
head 9.84029 -0.387111 -3.16108
rclavicle -1.48592e-014 3.97569e-015
rhumerus -32.6 -7.10747 -74.4443
rradius 28.4777
rwrist -7.67173
rhand -16.7771 -3.01837
rfingers 7.12502
rthumb 9.45037 -32.7865
lclavicle -1.48592e-014 3.97569e-015
lhumerus -44.4992 3.44879 81.0438
lradius 33.0096
lwrist 16.0903
lhand -13.2326 -3.43308
lfingers 7.12502
lthumb 12.869 26.1502
rfemur 5.45452 0.16273 32.8745
rtibia 18.7208
rfoot -16.7178 -24.509
rtoes -5.94972
lfemur -39.6242 3.33097 -11.9358
ltibia 48.15
lfoot -5.72501 12.837
ltoes 2.54616
239
root 1.03504 17.6028 0.944187 4.77862 2.83158 -6.95757
lowerback 5.66298 2.70999 5.27558
upperback -0.895813 4.15194 3.94742
thorax -4.03048 1.98643 0.766578
lowerneck -20.1533 0.00356419 4.85241
upperneck 20.3609 0.170281 -6.84963
head 9.79373 -0.348689 -3.19416
rclavicle -4.58199e-014 -1.74931e-014
rhumerus -31.9081 -6.61851 -74.6454
rradius 29.1268
rwrist -8.08227
rhand -16.9135 -2.91258
rfingers 7.12502
rthumb 9.31882 -32.6866
lclavicle -4.58199e-014 -1.74931e-014
lhumerus -45.0801 3.89165 80.6471
lradius 32.9188
lwrist 15.3642
lhand -13.2498 -3.43422
lfingers 7.12502
lthumb 12.8524 26.1501
rfemur 7.26927 0.130023 32.936
rtibia 16.6547
rfoot -15.9008 -24.2095
rtoes -6.84829
lfemur -40.3235 3.08798 -11.7863
ltibia 44.9653
lfoot -4.02404 12.8665
ltoes 2.45846
240
root 1.05187 17.5811 1.24052 5.03887 2.52733 -7.06552
lowerback 5.41762 2.86806 5.44194
upperback -0.98484 4.35728 3.9024
thorax -3.96482 2.08445 0.622438
lowerneck -20.0061 0.0581372 4.91003
upperneck 20.2961 0.245756 -6.90709
head 9.74898 -0.31367 -3.21013
rclavicle -1.32689e-014 -2.54444e-014
rhumerus -31.2433 -6.17036 -74.7888
rradius 29.7372
rwrist -8.39356
rhand -17.085 -2.68271
rfingers 7.12502
rthumb 9.15333 -32.4641
lclavicle -1.32689e-014 -2.54444e-014
lhumerus -45.6609 4.39787 80.2199
lradius 32.7698
lwrist 14.6029
lhand -13.2406 -3.38409
lfingers 7.12502
lthumb 12.8612 26.1997
rfemur 9.15626 0.0854893 32.9336
rtibia 14.4436
rfoot -14.8962 -23.8093
rtoes -7.85705
lfemur -40.8922 2.81288 -11.6178
ltibia 41.6743
lfoot -2.36059 12.9053
ltoes 2.15561
241
root 1.07001 17.5589 1.53918 5.30069 2.19328 -7.13558
lowerback 5.16969 3.02858 5.55866
upperback -1.07341 4.56159 3.85521
thorax -3.89932 2.18318 0.505218
lowerneck -19.8871 0.0938824 4.91359
upperneck 20.2721 0.30092 -6.91685
head 9.72247 -0.287098 -3.20438
rclavicle 2.77802e-014 -2.46493e-014
rhumerus -30.5848 -5.80296 -74.8729
rradius 30.2993
rwrist -8.59251
rhand -17.2551 -2.37841
rfingers 7.12502
rthumb 8.98918 -32.1669
lclavicle 2.77802e-014 -2.46493e-014
lhumerus -46.2365 4.95213 79.7691
lradius 32.5893
lwrist 13.8442
lhand -13.2111 -3.20978
lfingers 7.12502
lthumb 12.8897 26.3722
rfemur 11.134 0.048873 32.8533
rtibia 12.072
rfoot -13.7076 -23.2964
rtoes -8.92884
lfemur -41.329 2.49042 -11.4338
ltibia 38.3533
lfoot -1.03666 13.0555
ltoes 1.46151
242
root 1.08921 17.5358 1.84098 5.5501 1.81429 -7.15905
lowerback 4.92824 3.19693 5.61309
upperback -1.156 4.77186 3.80193
thorax -3.83422 2.28639 0.41682
lowerneck -19.7833 0.117987 4.89005
upperneck 20.2665 0.341578 -6.89854
head 9.70423 -0.266323 -3.18684
rclavicle -1.05356e-014 5.725e-014
rhumerus -29.9554 -5.51235 -74.909
rradius 30.8259
rwrist -8.69775
rhand -17.4207 -1.99531
rfingers 7.12502
rthumb 8.8294 -31.7906
lclavicle -1.05356e-014 5.725e-014
lhumerus -46.7914 5.55559 79.2871
lradius 32.3344
lwrist 13.0526
lhand -13.1879 -3.02466
lfingers 7.12502
lthumb 12.912 26.5559
rfemur 13.2533 0.136807 32.7072
rtibia 9.4764
rfoot -12.2744 -22.7451
rtoes -10.0616
lfemur -41.6371 2.13101 -11.2438
ltibia 35.1058
lfoot -0.343956 13.4263
ltoes 0.229064
243
root 1.10931 17.5111 2.14693 5.76334 1.38132 -7.13319
lowerback 4.69029 3.37439 5.60353
upperback -1.22377 4.98911 3.73798
thorax -3.75887 2.39495 0.35375
lowerneck -19.6921 0.143963 4.88198
upperneck 20.2982 0.380673 -6.87818
head 9.70128 -0.245013 -3.17255
rclavicle 1.03368e-014 1.51076e-014
rhumerus -29.3734 -5.29571 -74.9122
rradius 31.3356
rwrist -8.75593
rhand -17.5682 -1.57856
rfingers 7.12502
rthumb 8.68709 -31.3798
lclavicle 1.03368e-014 1.51076e-014
lhumerus -47.3371 6.19296 78.768
lradius 32.027
lwrist 12.2358
lhand -13.1703 -2.79141
lfingers 7.12502
lthumb 12.929 26.7881
rfemur 15.643 0.27265 32.4787
rtibia 6.45372
rfoot -10.5111 -22.0389
rtoes -11.2481
lfemur -41.8216 1.76357 -11.0671
ltibia 32.0528
lfoot -0.464102 14.0841
ltoes -1.72518
244
root 1.13 17.4848 2.45727 5.92845 0.906649 -7.05915
lowerback 4.48168 3.55667 5.53524
upperback -1.27445 5.21038 3.66125
thorax -3.68552 2.5069 0.309484
lowerneck -19.6191 0.167089 4.88582
upperneck 20.3391 0.4115 -6.85679
head 9.70434 -0.226766 -3.16151
rclavicle 2.74323e-014 5.32743e-014
rhumerus -28.8449 -5.16015 -74.8926
rradius 31.8394
rwrist -8.80817
rhand -17.6793 -1.18394
rfingers 7.12502
rthumb 8.57984 -30.9896
lclavicle 2.74323e-014 5.32743e-014
lhumerus -47.863 6.87117 78.2031
lradius 31.6617
lwrist 11.3998
lhand -13.1717 -2.51745
lfingers 7.12502
lthumb 12.9277 27.0621
rfemur 19.0889 0.444614 32.1777
rtibia 1.44845
rfoot -7.61973 -20.9734
rtoes -12.4776
lfemur -41.917 1.44087 -10.9474
ltibia 29.3195
lfoot -1.32259 14.9892
ltoes -4.35984
245
root 1.15146 17.457 2.77326 6.02594 0.392874 -6.93272
lowerback 4.30198 3.73918 5.40925
upperback -1.30082 5.42943 3.57075
thorax -3.60691 2.61934 0.282873
lowerneck -19.5512 0.199575 4.92975
upperneck 20.3669 0.446593 -6.85336
head 9.70403 -0.205558 -3.16274
rclavicle 3.68746e-014 -2.38542e-015
rhumerus -28.3901 -5.0983 -74.8625
rradius 32.3608
rwrist -8.89269
rhand -17.7603 -0.882938
rfingers 7.12502
rthumb 8.50164 -30.6918
lclavicle 3.68746e-014 -2.38542e-015
lhumerus -48.3778 7.58678 77.59
lradius 31.2369
lwrist 10.56
lhand -13.198 -2.29658
lfingers 7.12502
lthumb 12.9024 27.2846
rfemur 20.8402 0.645294 31.786
rtibia -3.81667e-014
rfoot -6.45036 -20.2564
rtoes -13.7581
lfemur -41.9334 1.2247 -10.9408
ltibia 27.0187
lfoot -2.80809 16.0153
ltoes -7.85328
246
root 1.17378 17.4273 3.09469 6.04213 -0.134678 -6.75118
lowerback 4.16548 3.90817 5.2271
upperback -1.30729 5.62981 3.46784
thorax -3.5367 2.72361 0.273978
lowerneck -19.4932 0.231303 4.966
upperneck 20.4428 0.478772 -6.82528
head 9.72228 -0.183584 -3.1557
rclavicle -6.10766e-014 -2.70347e-014
rhumerus -28.0268 -5.09101 -74.831
rradius 32.8955
rwrist -9.03394
rhand -17.8016 -0.637024
rfingers 7.12502
rthumb 8.46184 -30.4475
lclavicle -6.10766e-014 -2.70347e-014
lhumerus -48.9121 8.33845 76.9264
lradius 30.7905
lwrist 9.75933
lhand -13.2332 -2.13377
lfingers 7.12502
lthumb 12.8684 27.4495
rfemur 21.9562 0.8481 31.3066
rtibia 6.36111e-015
rfoot -5.85244 -19.6425
rtoes -15.1213
lfemur -41.8845 1.22733 -11.1453
ltibia 25.2325
lfoot -4.55637 16.8914
ltoes -11.587
247
root 1.19695 17.3961 3.42126 5.97894 -0.644004 -6.51622
lowerback 4.05914 4.05411 4.9931
upperback -1.28496 5.79775 3.35858
thorax -3.45929 2.81325 0.288441
lowerneck -19.4405 0.263927 4.99761
upperneck 20.4929 0.510722 -6.79111
head 9.73235 -0.161464 -3.14516
rclavicle 4.39811e-014 -6.36111e-015
rhumerus -27.7246 -5.14465 -74.7967
rradius 33.4257
rwrist -9.22781
rhand -17.8101 -0.542484
rfingers 7.12502
rthumb 8.45364 -30.3533
lclavicle 4.39811e-014 -6.36111e-015
lhumerus -49.4476 9.13255 76.2213
lradius 30.3192
lwrist 9.0129
lhand -13.2761 -2.00032
lfingers 7.12502
lthumb 12.827 27.5856
rfemur 23.1492 1.02594 30.7502
rtibia -6.04305e-014
rfoot -5.05837 -18.9575
rtoes -16.5324
lfemur -41.7749 1.55375 -11.6455
ltibia 24.0003
lfoot -6.27374 17.277
ltoes -15.0111
248
root 1.22083 17.3636 3.75239 5.83538 -1.09667 -6.24178
lowerback 3.98878 4.16161 4.72361
upperback -1.24238 5.9149 3.24884
thorax -3.38659 2.87833 0.323285
lowerneck -19.3936 0.308136 5.04038
upperneck 20.5438 0.555685 -6.75897
head 9.74475 -0.132759 -3.13554
rclavicle -1.56543e-014 -6.36111e-015
rhumerus -27.4998 -5.22368 -74.7694
rradius 33.9434
rwrist -9.49275
rhand -17.8108 -0.548833
rfingers 7.12502
rthumb 8.45293 -30.3597
lclavicle -1.56543e-014 -6.36111e-015
lhumerus -50.0049 9.9541 75.4771
lradius 29.8389
lwrist 8.34657
lhand -13.2918 -1.96625
lfingers 7.12502
lthumb 12.8119 27.6206
rfemur 24.4073 1.14506 30.1377
rtibia 6.36111e-015
rfoot -4.02361 -18.1908
rtoes -17.9592
lfemur -41.5897 2.2503 -12.472
ltibia 23.3205
lfoot -7.69091 16.9511
ltoes -17.8376
